<?xml version="1.0" encoding="utf-8"?>
<!-- Generator: Adobe Illustrator 27.8.0, SVG Export Plug-In . SVG Version: 6.00 Build 0)  -->
<svg version="1.1" id="Layer_1" xmlns="http://www.w3.org/2000/svg" xmlns:xlink="http://www.w3.org/1999/xlink" x="0px" y="0px"
	 viewBox="0 0 2560 5130.6" style="enable-background:new 0 0 2560 5130.6;" xml:space="preserve">
<style type="text/css">
	.st0{fill:none;stroke:#FF0000;stroke-miterlimit:10;}
</style>
<g id="_x3C_Group_2_x3E_">
	<path id="line-2-3" class="st0" d="M1217.3,1430.6c0,0,2005-81.3,594.2-1080.8"/>
	<path id="line-2-6" class="st0" d="M1030.9,1400.2c0,0,748.7-1016.5-479.5-711.5"/>
	<path id="line-2-4" class="st0" d="M836.9,1773.7c0,0-537.9,54.2-551.4,748.4"/>
	<path id="line-2-5" class="st0" d="M1217.3,1681.4c0,0,481.1,484.5,376.1,1602.6"/>
	<path id="line-2-6_00000075883201630189781400000010357612938090186912_" class="st0" d="M763.2,1413.7
		c0,0-440.5-171.1-345.6-651.4"/>
	<path id="line-2-7" class="st0" d="M1217.3,1593.3c0,0,1260.4-547.2,850.4,770"/>
	<path id="line-2-8" class="st0" d="M1146.1,1373c0,0,135.5-138.9,304.9-138.9"/>
	<path id="line-2-9" class="st0" d="M1217.3,1480.6c0,0,752.2,160.1-71.1,1542.5"/>
	<path id="line-2-10" class="st0" d="M1146.1,1789.8c0,0,945.3,2256.6,831.8,2893.5"/>
	<path id="line-2-11" class="st0" d="M981.8,1773.7c0,0,493,710.7,235.5,2201.5"/>
</g>
<g id="_x3C_Group_3_x3E_">
	<path id="line-3-4" class="st0" d="M1240.8,253.6c0,0-1026.6,792.8-861.5,2298.5"/>
	<path id="line-3-5" class="st0" d="M1869.7,447.6c0,0,1099.9,1121.5,103.8,2829.2"/>
	<path id="line-3-6" class="st0" d="M1360.8,44.7c0,0-863.1-206.7-961.4,450.6"/>
	<path id="line-3-7" class="st0" d="M1848.1,237.5c0,0,918.2,0,188,2107.5"/>
	<path id="line-3-8" class="st0" d="M1892.2,85c0,0,1189.3,169.4-88.1,1240.1"/>
	<path id="line-3-9" class="st0" d="M1407.6,495c0,0-598.9,1433.2-485.8,2544.6"/>
	<path id="line-3-10" class="st0" d="M1536.4,732.2c0,0,985.1,2598.8,546.8,3915.1"/>
	<path id="line-3-11" class="st0" d="M1294.9,447.6c0,0-1169.7,2827.5-519.2,3732.1"/>
</g>
<g id="_x3C_Group_4_x3E_">
	<path id="line-4-5" class="st0" d="M546.9,2643c0,0,1236.7-389.6,1216.4,738.6"/>
	<path id="line-4-6" class="st0" d="M347,2416.8c0,0-304.9-1010.5-84.7-1623.8"/>
	<path id="line-4-7" class="st0" d="M475.7,2510.8c0,0,918.2-718.3,1443.4-199.9"/>
	<path id="line-4-8" class="st0" d="M401.2,2460c0,0,6.8-382.9,728.5-403.2"/>
	<path id="line-4-9" class="st0" d="M519.8,2771.3c0,0,582.8,10.6,535.3,278.3"/>
	<path id="line-4-10" class="st0" d="M182.4,2832.7c0,0-469,2958.8,1672.4,1984.2"/>
	<path id="line-4-11" class="st0" d="M282.7,2772.2c0,0-44,1208.8,447.2,1415.9"/>
</g>
<g id="_x3C_Group_5_x3E_">
	<path id="line-5-6" class="st0" d="M1441.2,3254.4c0,0,389.7-2633.1-918.2-2412.9"/>
	<path id="line-5-7" class="st0" d="M1857.9,3254.4c0,0,250.7-411.7,250.7-675.3"/>
	<path id="line-5-8" class="st0" d="M1752.9,3240.5c0,0,579.4-1161.3,105-1343"/>
	<path id="line-5-9" class="st0" d="M1393.7,3254.4c0,0-74.5-1342.2-511.6-227.4"/>
	<path id="line-5-10" class="st0" d="M1969.7,3494.6c0,0,545.5-562.4,274.5,1257"/>
	<path id="line-5-11" class="st0" d="M1782.5,4082c0,0,258.3,483.2-422.7,310.4"/>
</g>
<g id="_x3C_Group_6_x3E_">
	<path id="line-6-7" class="st0" d="M587.2,475.4c0,0,1555.2-593.3,1379,1843.7"/>
	<path id="line-6-8" class="st0" d="M608.4,804.5c0,0,903.8-19.5,930.9,498.9"/>
	<path id="line-6-9" class="st0" d="M194.2,846c0,0-77.9,1792.4,416.8,2287.1"/>
	<path id="line-6-11" class="st0" d="M387.3,632.7c0,0,816.6,2030,491.3,3411.8"/>
	<path id="line-6-10" class="st0" d="M573.7,879.9c0,0,1606,2547.9,1653.5,3794.8"/>
</g>
<g id="_x3C_Group_7_x3E_">
	<path id="line-7-8" class="st0" d="M2007.4,2345.7c0,0,498.1-707.7-307.5-494.3"/>
	<path id="line-7-9" class="st0" d="M1815.1,2443.5c0,0-920.8-203.3-1263.8,625.1"/>
	<path id="line-7-10" class="st0" d="M2177.6,2584.6c0,0,520.9,1444.6-58.5,2077.4"/>
	<path id="line-7-11" class="st0" d="M1929.7,2639.2c0,0,766.3,729.3-522.1,1453.6"/>
</g>
<g id="_x3C_Group_8_x3E_">
	<line id="line-8-9" class="st0" x1="1265.4" y1="2176.8" x2="1112.9" y2="3220.4"/>
	<path id="line-8-10" class="st0" d="M1627.9,2204.5c0,0,894.5,1092.9,616.7,2527.6"/>
	<path id="line-8-11" class="st0" d="M1065.5,2142.9c0,0-1799.2,1175.9-328.7,1968.2"/>
</g>
<g id="_x3C_Group_9_x3E_">
	<path id="line-9-10" class="st0" d="M1038.4,3331.4c0,0,1863.5-91.5,830.1,1297.7"/>
	<path id="line-9-11" class="st0" d="M688.7,4087c0,0-393,118.2-288-549.1"/>
</g>
<g id="_x3C_Group_10_x3E_">
	<path id="line-10-11" class="st0" d="M1736.2,4687.3c0,0-667.9,321.1-684.8-232.6"/>
</g>
<g id="_x3C_Group_1_x3E_">
	<path id="line-1-2_00000158728777301853281630000012228008152167555000_" class="st0" d="M164.7,1669.9
		c0,0,340.5-630.2,808.1-198.2"/>
	<path id="line-1-3_00000178193639252187151240000011077338837079698064_" class="st0" d="M64.4,1584.3
		c0,0-327.4-1887.2,1357-1168.9"/>
	<path id="line-1-4_00000110451827024224836820000009564970192093849250_" class="st0" d="M657.7,2170.5c0,0,22.9,266.8-190.6,482.8
		"/>
	<path id="line-1-5_00000092453514284487894390000012339796299805590172_" class="st0" d="M848.3,2226.4c0,0,836,66.1,940.2,1024.1"
		/>
	<path id="line-1-6_00000127764074126746912520000017878408251291280043_" class="st0" d="M120.7,1584.3c0,0-38-547.5,122-745.4"/>
	<path id="line-1-7" class="st0" d="M285.5,1862.2c0,0,2001.6-734.2,2138.8,559.4"/>
	
		<line id="line-1-8_00000106114226036401651000000017857889916294409613_" class="st0" x1="848.3" y1="2018" x2="1289.6" y2="2018"/>
	<path id="line-1-9_00000172421139088581596620000006731473480536081320_" class="st0" d="M750.9,2241.6
		c0,0,223.6,318.5,172.8,830.1"/>
	<path id="line-1-8_00000026150410511912222210000016789966004330416526_" class="st0" d="M875,2129.8
		c14.8-13.6,1397.2-1321.4,1397.2,2534.4"/>
	<path id="line-1-11_00000124861632531166421210000001763404475706021043_" class="st0" d="M242.7,2214.5
		c0,0-423.5,1517.9,393,2070.2"/>
</g>
</svg>
